<svg width="21" height="23" viewBox="0 0 21 23" fill="none" xmlns="http://www.w3.org/2000/svg">
<path d="M0.375 0.25H2.625V2.5H4.875V4.75H2.625V20.5H18.375V4.75H16.125V2.5H18.375V0.25H20.625V22.75H0.375V0.25ZM13.875 2.5V0.25H16.125V2.5H13.875ZM11.625 2.5H13.875V4.75H11.625V2.5ZM9.375 2.5V0.25H11.625V2.5H9.375ZM7.125 2.5H9.375V4.75H7.125V2.5ZM7.125 2.5V0.25H4.875V2.5H7.125ZM16.125 7H4.875V9.25H16.125V7ZM4.875 11.5H16.125V13.75H4.875V11.5ZM16.125 18.25V16H11.625V18.25H16.125Z" fill="#151321"/>
</svg>
