<svg width="28" height="30" viewBox="0 0 28 30" fill="none" xmlns="http://www.w3.org/2000/svg">
<path d="M5.09091 0V1.27273H0V29.2727H28V1.27273H22.9091V0H20.3636V1.27273H7.63636V0H5.09091ZM2.54545 3.81818H5.09091V5.09091H7.63636V3.81818H20.3636V5.09091H22.9091V3.81818H25.4545V6.36364H2.54545V3.81818ZM2.54545 8.90909H25.4545V26.7273H2.54545V8.90909ZM10.1818 11.4545V14H12.7273V11.4545H10.1818ZM15.2727 11.4545V14H17.8182V11.4545H15.2727ZM20.3636 11.4545V14H22.9091V11.4545H20.3636ZM5.09091 16.5455V19.0909H7.63636V16.5455H5.09091ZM10.1818 16.5455V19.0909H12.7273V16.5455H10.1818ZM15.2727 16.5455V19.0909H17.8182V16.5455H15.2727ZM20.3636 16.5455V19.0909H22.9091V16.5455H20.3636ZM5.09091 21.6364V24.1818H7.63636V21.6364H5.09091ZM10.1818 21.6364V24.1818H12.7273V21.6364H10.1818ZM15.2727 21.6364V24.1818H17.8182V21.6364H15.2727Z" fill="#E5E5E5"/>
</svg>
