<svg width="45" height="46" viewBox="0 0 45 46" fill="none" xmlns="http://www.w3.org/2000/svg">
<path d="M22.0833 1.2977C22.0833 1.2977 24.924 -1.11898 28.4792 0.643526C33.099 2.9352 34.1907 8.2946 34.2417 11.4154C34.2927 14.5363 37.0084 14.4102 36.2469 17.053C35.4855 19.6957 38.4803 19.4686 37.5667 22.2374C36.6532 25.0061 40.1813 25.0811 38.9376 28.0509C37.6938 31.0207 43.5063 32.5301 40.6376 35.702C37.7688 38.8739 22.0323 32.9582 22.1594 32.3791C22.2864 31.7999 21.25 12.8498 21.25 12.8498L22.0833 1.2977Z" fill="#D4716C"/>
<path d="M22.0833 1.29765C22.0833 1.29765 19.2406 -1.19402 15.3062 0.919528C11.152 3.15183 12.0312 8.39456 9.0364 10.7852C6.04159 13.1758 10.4583 15.4165 6.87493 17.6311C3.29158 19.8456 8.93119 21.6332 5.78326 23.7769C2.63533 25.9207 8.0166 28.1519 4.86971 30.5728C1.72283 32.9936 2.10304 35.9582 4.46346 36.6634C6.82389 37.3686 20.5052 34.3717 21.0385 33.7467C21.5719 33.1217 22.3323 18.7717 22.4344 18.3696C22.5364 17.9675 22.0833 1.29765 22.0833 1.29765Z" fill="#D4716C"/>
<path d="M11.7166 14.9654C11.7166 14.9654 11.4989 17.6561 13.1229 21.3811C14.7468 25.1061 7.76764 28.453 10.8385 31.3728C13.9093 34.2926 34.0125 31.6249 34.2917 31.6499C34.5709 31.6749 36.773 30.7343 35.2823 26.9176C33.8855 23.3446 33.3386 24.4769 31.4927 16.3727C29.6469 8.26854 11.7166 14.9654 11.7166 14.9654Z" fill="#B35250"/>
<path d="M44.9907 45.9072H0.00927721C-0.279266 35.6249 6.2218 32.4332 11.2947 30.7874C12.7729 30.3072 14.1291 29.9592 15.1614 29.6061C15.3767 29.5318 15.5774 29.4572 15.7635 29.3822C15.8767 29.3349 15.984 29.2881 16.0854 29.2415C16.1343 29.2176 16.1823 29.1947 16.2281 29.1707L16.2583 29.1551C16.5984 28.9788 16.9091 28.7507 17.1791 28.479C17.9198 27.729 18.2406 26.7311 18.3385 25.7332C18.4061 24.9424 18.3711 24.1462 18.2344 23.3644C18.1433 22.7992 18.0082 22.2419 17.8302 21.6978H27.174C27.174 21.6978 26.2865 24.228 26.775 26.4499C26.9396 27.1988 27.2615 27.9144 27.8271 28.4853C28.0487 28.7084 28.2983 28.9017 28.5698 29.0603C28.6354 29.0988 28.7031 29.1363 28.7781 29.1728L28.8146 29.1915L28.8865 29.2269C29.2061 29.3754 29.5341 29.5052 29.8688 29.6155C31.1959 30.0686 33.0532 30.5145 35.0136 31.2395C39.8209 33.0207 45.2553 36.4884 44.9907 45.9072Z" fill="#F8A495"/>
<path d="M44.9907 45.9072H0.00927721C-0.279266 35.6249 6.2218 32.4332 11.2947 30.7874C11.551 30.7041 11.8052 30.6238 12.0531 30.5478C13.2343 30.1863 14.3083 29.8978 15.1614 29.6103C15.3767 29.536 15.5774 29.4613 15.7635 29.3863C15.8767 29.3391 15.984 29.2922 16.0854 29.2457C16.1343 29.2218 16.1823 29.1988 16.2281 29.1749L16.2583 29.1593C17.2802 30.1832 19.8521 32.4249 22.8146 32.4572H22.8239C24.6802 32.4759 26.6906 31.6238 28.5677 29.0624C28.6333 29.1009 28.7011 29.1384 28.7761 29.1749L28.8125 29.1936L28.8844 29.229C29.204 29.3775 29.532 29.5073 29.8667 29.6176C30.524 29.8426 31.3125 30.0645 32.1782 30.3207C33.0605 30.5811 34.023 30.8759 35.0115 31.2416C39.8209 33.0207 45.2553 36.4884 44.9907 45.9072Z" fill="#722722"/>
<path d="M32.7459 12.604C32.7457 13.0805 32.7186 13.5566 32.6646 14.0301C32.0157 19.8353 27.5261 25.6593 22.0833 25.6593C17.5531 25.6593 13.6822 21.6249 12.1374 16.9207C11.8294 15.987 11.6172 15.0244 11.5041 14.0478C11.4972 13.9894 11.4909 13.9311 11.4854 13.8728C11.4427 13.4467 11.4197 13.0217 11.4197 12.5988C11.4197 6.354 16.1937 1.29773 22.0833 1.29773C27.9729 1.29773 32.7459 6.354 32.7459 12.604Z" fill="#D4716C"/>
<path d="M33.2011 16.3978C33.2011 16.3978 33.9365 9.58316 29.6729 5.80294C26.8583 3.31126 31.5511 16.2728 33.2011 16.3978Z" fill="#B35250"/>
<g opacity="0.27">
<path opacity="0.27" d="M32.85 16.2499C32.85 16.2499 32.6323 12.0457 31.2177 9.79154C29.8031 7.53736 31.5688 17.1697 31.5688 17.1697L32.85 16.2499Z" fill="#010101"/>
</g>
<path d="M12.4812 17.1666L12.1375 16.9207C11.8294 15.9871 11.6172 15.0244 11.5041 14.0478C11.4972 13.9895 11.4909 13.9311 11.4854 13.8728C11.7156 12.5384 12.1239 10.9197 12.8322 9.7884C14.2468 7.53214 12.4812 17.1666 12.4812 17.1666Z" fill="#B35250"/>
<path d="M13.1354 19.2926C14.5161 19.2926 15.6354 18.1826 15.6354 16.8134C15.6354 15.4442 14.5161 14.3342 13.1354 14.3342C11.7547 14.3342 10.6354 15.4442 10.6354 16.8134C10.6354 18.1826 11.7547 19.2926 13.1354 19.2926Z" fill="#F8A495"/>
<path d="M13.1354 18.3613C13.9977 18.3613 14.6968 17.6683 14.6968 16.8134C14.6968 15.9585 13.9977 15.2655 13.1354 15.2655C12.273 15.2655 11.5739 15.9585 11.5739 16.8134C11.5739 17.6683 12.273 18.3613 13.1354 18.3613Z" fill="#F08777"/>
<path d="M31.0813 19.3176C32.462 19.3176 33.5813 18.2076 33.5813 16.8384C33.5813 15.4692 32.462 14.3593 31.0813 14.3593C29.7006 14.3593 28.5813 15.4692 28.5813 16.8384C28.5813 18.2076 29.7006 19.3176 31.0813 19.3176Z" fill="#F9A88B"/>
<path d="M31.0813 18.3863C31.9436 18.3863 32.6427 17.6932 32.6427 16.8383C32.6427 15.9834 31.9436 15.2904 31.0813 15.2904C30.2189 15.2904 29.5198 15.9834 29.5198 16.8383C29.5198 17.6932 30.2189 18.3863 31.0813 18.3863Z" fill="#E58977"/>
<path d="M26.7708 26.4478C26.2037 27.0537 25.4596 27.465 24.6448 27.6228C21.8208 28.2082 19.5979 26.8342 18.3364 25.7332C18.404 24.9424 18.369 24.1462 18.2323 23.3644C19.0302 22.6905 20.05 22.1415 21.1323 21.6978H27.174C27.174 21.6978 26.2844 24.2259 26.7708 26.4478Z" fill="#F08777"/>
<path d="M31.8 13.0446C31.8 13.1019 31.8 13.1592 31.8 13.2165C31.7945 13.6165 31.7705 14.0183 31.7282 14.4217C31.1365 20.0343 27.0406 25.6593 22.0854 25.6593C17.1302 25.6593 13.0447 20.0488 12.4447 14.4436C12.4114 14.1367 12.3892 13.8297 12.3781 13.5228C12.3718 13.3634 12.3687 13.203 12.3687 13.0446C12.3687 7.01545 16.7187 2.12793 22.0854 2.12793C27.4521 2.12793 31.8 7.01545 31.8 13.0446Z" fill="#F8A495"/>
<path d="M25.0542 12.2561C25.0865 12.2259 25.8625 11.5384 27.1542 12.1999C27.2439 12.2458 27.3482 12.2544 27.4443 12.224C27.5404 12.1936 27.6207 12.1265 27.6677 12.0374C27.6904 11.9932 27.7043 11.945 27.7083 11.8954C27.7124 11.8459 27.7067 11.7961 27.6915 11.7488C27.6763 11.7015 27.652 11.6576 27.6198 11.6197C27.5877 11.5819 27.5484 11.5507 27.5042 11.528C26.5802 11.0561 25.8302 11.1217 25.3635 11.2592C25.0563 11.3463 24.7719 11.4995 24.5302 11.7082C24.5302 11.7082 24.1792 12.0124 24.4177 12.254C24.6833 12.5238 25.0583 12.254 25.0583 12.254L25.0542 12.2561Z" fill="#341724"/>
<path d="M17.7843 15.0644C18.1399 15.0644 18.4281 14.5687 18.4281 13.9572C18.4281 13.3456 18.1399 12.8499 17.7843 12.8499C17.4288 12.8499 17.1406 13.3456 17.1406 13.9572C17.1406 14.5687 17.4288 15.0644 17.7843 15.0644Z" fill="#341724"/>
<path d="M26.1854 15.0394C26.541 15.0394 26.8292 14.5437 26.8292 13.9321C26.8292 13.3206 26.541 12.8248 26.1854 12.8248C25.8299 12.8248 25.5417 13.3206 25.5417 13.9321C25.5417 14.5437 25.8299 15.0394 26.1854 15.0394Z" fill="#341724"/>
<path d="M18.75 12.3092C18.7114 12.2874 17.8031 11.7884 16.6875 12.7092C16.6097 12.7734 16.5098 12.8043 16.4094 12.7954C16.309 12.7864 16.2162 12.7382 16.151 12.6613C16.119 12.6234 16.0948 12.5795 16.0799 12.5322C16.065 12.4849 16.0596 12.4351 16.064 12.3857C16.0685 12.3363 16.0827 12.2882 16.1059 12.2444C16.129 12.2005 16.1606 12.1616 16.1989 12.1301C16.9958 11.4686 17.7427 11.3707 18.2281 11.4009C18.548 11.4183 18.86 11.5065 19.1416 11.6592C19.1416 11.6592 19.551 11.879 19.3719 12.1665C19.1719 12.4874 18.7469 12.3051 18.7469 12.3051L18.75 12.3092Z" fill="#341724"/>
<path d="M20.2552 16.1717C20.2552 16.1717 21.1187 13.63 21.8042 13.68C22.4896 13.73 24.1396 16.9519 24.1396 16.9519L20.2552 16.1717Z" fill="#F08777"/>
<path d="M31.7979 14.3207C31.7926 14.688 31.7686 15.0548 31.7261 15.4196C31.6299 16.2222 31.4555 17.0135 31.2052 17.7822C31.1511 17.9478 31.0948 18.1134 31.0344 18.2769C31.0156 18.328 30.9959 18.3811 30.9761 18.4311C30.9563 18.4811 30.9313 18.5478 30.9073 18.6061C30.8563 18.7363 30.8031 18.8665 30.7459 18.9947C30.6886 19.1228 30.6313 19.253 30.5698 19.3811L30.5125 19.5009C30.4886 19.5509 30.4636 19.6051 30.4386 19.6499C30.0209 20.4849 29.5149 21.2728 28.9292 21.9999C28.7361 22.2388 28.5354 22.4686 28.3271 22.6895C28.1188 22.9082 27.9104 23.1186 27.6865 23.3145C27.132 23.8205 26.5218 24.2618 25.8677 24.6301C24.7157 25.2927 23.4123 25.6471 22.0833 25.6593H21.9239C21.2531 25.6454 20.5873 25.5402 19.9448 25.3468C19.7021 25.2728 19.4614 25.1874 19.225 25.0905C18.6939 24.8674 18.1859 24.5929 17.7083 24.2707C17.2934 23.9963 16.8993 23.6916 16.5291 23.3593C16.4333 23.2728 16.3385 23.1863 16.2458 23.0968C15.5054 22.3817 14.8573 21.5768 14.3166 20.7009C14.3165 20.6988 14.3165 20.6967 14.3166 20.6947C14.2833 20.6405 14.25 20.5905 14.2125 20.5322C14.0583 20.2759 13.9128 20.0138 13.776 19.7457C13.7416 19.679 13.7083 19.6113 13.6718 19.5436C13.5 19.1936 13.3427 18.8353 13.202 18.4717C12.8232 17.4966 12.5678 16.4779 12.4416 15.4394C12.4083 15.1592 12.3864 14.879 12.375 14.6009C13 15.3301 14.2083 16.4509 15.9906 16.8009C17.5448 17.1061 19.9083 15.4405 22.0562 15.4665C22.3804 15.472 22.7031 15.5122 23.0187 15.5863C23.1052 15.6051 23.1906 15.6269 23.276 15.6509C23.3948 15.6832 23.5125 15.7196 23.6292 15.7551C23.7104 15.7821 23.7917 15.8103 23.8719 15.8394C25.1104 16.2874 26.2302 16.9478 27.5125 16.7217C29.0104 16.4582 30.2084 15.0717 31.7979 14.3207Z" fill="#9C5EA5"/>
<g opacity="0.12">
<path opacity="0.12" d="M11.2614 45.9072H9.90723C10.1052 44.1593 10.4666 41.1478 10.6104 41.1155C10.7541 41.0832 11.0499 43.8614 11.2614 45.9072Z" fill="#010101"/>
</g>
<g opacity="0.12">
<path opacity="0.12" d="M37.5584 45.9072H36.3L36.7292 41.1124L37.5584 45.9072Z" fill="#010101"/>
</g>
<path d="M16.2843 18.8592L14.7531 19.5321L14.0739 18.0144L15.6052 17.3405L16.2843 18.8592Z" fill="#FFFFFD"/>
<path d="M21.9198 17.3488L20.3875 18.0228L19.7083 16.504L21.2396 15.8301L21.9198 17.3488Z" fill="#FFFFFD"/>
<path d="M20.1677 20.7218L18.6364 21.3947L17.9573 19.877L19.4885 19.203L20.1677 20.7218Z" fill="#FFFFFD"/>
<path d="M26.2594 19.3374L24.7281 20.0103L24.049 18.4926L25.5802 17.8186L26.2594 19.3374Z" fill="#FFFFFD"/>
<path d="M24.3812 22.9863L22.85 23.6602L22.1708 22.1415L23.7021 21.4675L24.3812 22.9863Z" fill="#FFFFFD"/>
<path d="M18.1125 24.0936L17.7083 24.2707C17.2934 23.9963 16.8993 23.6916 16.5291 23.3593C16.4333 23.2728 16.3385 23.1863 16.2458 23.0968L17.4354 22.5759L18.1125 24.0936Z" fill="#FFFFFD"/>
<path d="M21.9239 25.6582C21.2531 25.6443 20.5873 25.5392 19.9448 25.3457L19.9333 25.3186L21.4646 24.6447L21.9239 25.6582Z" fill="#FFFFFD"/>
<path d="M28.9313 21.9999C28.7382 22.2388 28.5375 22.4686 28.3292 22.6895C28.1208 22.9082 27.9125 23.1186 27.6886 23.3145L27.0948 21.9874L28.6261 21.3145L28.9313 21.9999Z" fill="#FFFFFD"/>
<path d="M30.9052 18.4061L29.374 19.08L28.6938 17.5613L30.225 16.8873L30.9052 18.4061Z" fill="#FFFFFD"/>
<g opacity="0.23">
<path opacity="0.23" d="M27.1427 18.1884C27.1427 18.1884 21.8239 20.3457 17.6291 18.6925C17.6291 18.6925 20.8021 23.8353 27.1427 18.1884Z" fill="#010101"/>
</g>
<path d="M32.9979 27.7738C31.9084 31.2905 32.1136 32.2926 32.2052 32.5217C32.213 32.5423 32.2232 32.5619 32.2354 32.5801C30.6886 31.4467 32.1094 26.6655 30.5104 24.1998C28.9115 21.7342 31.0907 15.4592 29.3927 14.0321C27.6948 12.605 29.0375 10.7352 26.7281 10.7102C24.4187 10.6852 24.4687 8.34457 21.3979 9.04874C18.3427 9.74979 16.5937 6.49248 16.575 6.45811C15.3823 12.0956 12.2385 15.6946 12.2385 15.6946L11.7781 11.4665C11.7781 11.4665 13.4781 6.05498 14.3666 5.17477C15.2552 4.29456 17.9458 1.95288 22.6927 1.95288C27.4396 1.95288 30.1802 5.95498 30.5052 6.65915C30.8302 7.36332 33.2459 13.404 32.6927 18.3123C32.1396 23.2207 34.2917 23.5957 32.9979 27.7738Z" fill="#D4716C"/>
<path d="M32.2365 32.5812C30.6896 31.4478 32.1104 26.6665 30.5115 24.2009C28.9125 21.7353 31.0917 15.4602 29.3938 14.0332C27.6958 12.6061 29.0386 10.7363 26.7292 10.7113C24.4198 10.6863 24.4687 8.3446 21.3979 9.04877C18.3427 9.74981 16.5937 6.49251 16.575 6.45813C16.602 6.47896 18.7573 8.11439 22.6927 7.33834C26.651 6.55813 26.226 9.12064 28.6573 10.0571C31.0886 10.9936 30.5104 17.6321 30.7636 21.0051C31.0167 24.378 32.3886 24.528 31.9573 27.3468C31.5334 30.1103 31.699 31.5134 32.2052 32.5228C32.2157 32.5426 32.225 32.5624 32.2354 32.5812H32.2365Z" fill="#B35250"/>
<path d="M22.8125 32.4531C18.75 41.0312 13.451 32.9656 12.051 30.5479C13.2322 30.1864 14.3062 29.8978 15.1593 29.6103C15.3746 29.536 15.5753 29.4614 15.7614 29.3864C15.8746 29.3392 15.9819 29.2923 16.0833 29.2458C16.1323 29.2218 16.1802 29.1989 16.226 29.1749L16.2562 29.1593C17.2802 30.1791 19.8521 32.4208 22.8125 32.4531Z" fill="white"/>
<path d="M32.174 30.3124C31.6063 32.2916 30.0677 36.3708 27.0323 36.3541C23.1781 36.3301 22.8437 32.7239 22.8239 32.451C24.6802 32.4697 26.6906 31.6176 28.5677 29.0562C28.6333 29.0947 28.7011 29.1322 28.7761 29.1687L28.8125 29.1874L28.8844 29.2228C29.204 29.3713 29.532 29.501 29.8667 29.6114C30.5209 29.8384 31.3084 30.0603 32.174 30.3124Z" fill="white"/>
<path d="M22.6156 39.7791C23.3727 39.7791 23.9865 39.1704 23.9865 38.4197C23.9865 37.6689 23.3727 37.0603 22.6156 37.0603C21.8585 37.0603 21.2448 37.6689 21.2448 38.4197C21.2448 39.1704 21.8585 39.7791 22.6156 39.7791Z" fill="white"/>
<path d="M22.6667 44.2843C23.4238 44.2843 24.0375 43.6757 24.0375 42.9249C24.0375 42.1742 23.4238 41.5656 22.6667 41.5656C21.9096 41.5656 21.2958 42.1742 21.2958 42.9249C21.2958 43.6757 21.9096 44.2843 22.6667 44.2843Z" fill="white"/>
</svg>
