<svg width="45" height="48" viewBox="0 0 45 48" fill="none" xmlns="http://www.w3.org/2000/svg">
<path d="M27.1884 3.67537C27.1884 3.67537 29.9007 2.17833 32.0074 5.6302C34.5269 9.75883 35.0277 29.4381 39.5994 36.3681C44.1712 43.298 4.74656 35.86 4.74656 35.86C4.74656 35.86 8.48547 26.0743 9.36651 12.7372C10.1176 1.4031 19.6404 -1.27458 24.4688 0.502162C25.9983 1.06577 27.2859 2.55862 27.1884 3.67537Z" fill="#362B39"/>
<g opacity="0.12">
<path opacity="0.12" d="M32.6056 17.4474C32.6056 17.4474 32.7177 27.3064 34.4913 33.8299C36.2649 40.3534 9.11404 34.5402 9.11404 34.5402C9.11404 34.5402 10.6247 22.1051 11.3276 15.9462L27.3874 19.4127L32.6056 17.4474Z" fill="#010101"/>
</g>
<path d="M44.9904 47.143H0.00927545C-0.363673 33.7535 10.5901 32.2847 15.1608 30.7029C15.3766 30.6288 15.5774 30.5534 15.7632 30.4766C15.8774 30.4305 15.9843 30.3833 16.0848 30.3351C16.1341 30.3111 16.1823 30.288 16.2283 30.2639C16.5805 30.084 16.9014 29.8484 17.1785 29.5662C17.9192 28.8098 18.2398 27.8041 18.3382 26.7974C18.4032 26.0001 18.3662 25.1978 18.2282 24.4099C18.137 23.8395 18.0018 23.277 17.8239 22.7274H27.1675C27.1675 22.7274 26.2791 25.2783 26.7683 27.5192C26.9339 28.2755 27.2555 28.9963 27.8212 29.5725C28.0965 29.8524 28.4148 30.0866 28.764 30.266L28.8007 30.2849L28.873 30.3205C29.1922 30.4703 29.52 30.6011 29.8546 30.7123C34.4504 32.29 45.3613 33.7765 44.9904 47.143Z" fill="#F29B7E"/>
<path d="M36.6965 47.1429H10.4424L11.27 38.0685L34.9009 38.145L36.6965 47.1429Z" fill="#F26959"/>
<path d="M44.9904 47.1427H28.7525L28.8091 30.2825L28.8814 30.3181C29.2006 30.4679 29.5284 30.5987 29.863 30.7099C34.4505 32.2897 45.3613 33.7762 44.9904 47.1427Z" fill="#765D6C"/>
<path d="M15.8187 47.1426H0.00927544C-0.363673 33.7532 10.5901 32.2845 15.1608 30.7026C15.3766 30.6286 15.5774 30.5531 15.7632 30.4763L15.8187 47.1426Z" fill="#765D6C"/>
<path d="M32.746 13.5501C32.7458 14.0308 32.7185 14.511 32.6643 14.9885C32.0158 20.8488 27.5257 26.7217 22.0834 26.7217C16.6411 26.7217 12.1626 20.8624 11.5026 15.0105C11.4471 14.5253 11.4191 14.0374 11.4188 13.5491C11.4188 7.25507 16.1927 2.15112 22.0813 2.15112C27.9699 2.15112 32.746 7.25612 32.746 13.5501Z" fill="#362B39"/>
<g opacity="0.12">
<path opacity="0.12" d="M32.8497 17.2315C32.8497 17.2315 32.6318 12.9908 31.2186 10.7164C29.8053 8.44206 31.5695 18.1544 31.5695 18.1544L32.8497 17.2315Z" fill="#010101"/>
</g>
<g opacity="0.12">
<path opacity="0.12" d="M11.2009 17.2315C11.2009 17.2315 11.4188 12.9908 12.832 10.7164C14.2452 8.44206 12.4811 18.1544 12.4811 18.1544L11.2009 17.2315Z" fill="#010101"/>
</g>
<path d="M15.6037 18.2024C15.8249 16.8392 14.8992 15.5547 13.536 15.3334C12.1728 15.1121 10.8883 16.0378 10.667 17.4011C10.4457 18.7643 11.3714 20.0488 12.7347 20.2701C14.0979 20.4913 15.3824 19.5656 15.6037 18.2024Z" fill="#F29B7E"/>
<path d="M14.2394 18.904C14.849 18.2945 14.849 17.3061 14.2394 16.6965C13.6298 16.087 12.6415 16.087 12.0319 16.6965C11.4223 17.3061 11.4223 18.2945 12.0319 18.904C12.6415 19.5136 13.6298 19.5136 14.2394 18.904Z" fill="#C47E65"/>
<path d="M33.5506 18.2279C33.7719 16.8647 32.8462 15.5802 31.483 15.3589C30.1197 15.1376 28.8352 16.0633 28.614 17.4266C28.3927 18.7898 29.3184 20.0743 30.6816 20.2956C32.0448 20.5168 33.3293 19.5911 33.5506 18.2279Z" fill="#F29B7E"/>
<path d="M32.1854 18.9302C32.795 18.3206 32.795 17.3323 32.1854 16.7227C31.5758 16.1131 30.5875 16.1131 29.9779 16.7227C29.3683 17.3323 29.3683 18.3206 29.9779 18.9302C30.5875 19.5397 31.5758 19.5397 32.1854 18.9302Z" fill="#C47E65"/>
<path d="M26.7725 27.5171C26.208 28.1286 25.4636 28.5447 24.6469 28.7051C21.8184 29.2949 19.5996 27.9099 18.3382 26.7995C18.4034 26.0015 18.3664 25.1985 18.2282 24.4099C19.0255 23.73 20.0458 23.1758 21.128 22.7274H27.1675C27.1675 22.7274 26.2833 25.2762 26.7725 27.5171Z" fill="#C47E65"/>
<path d="M31.7989 13.9995C31.7989 14.0571 31.7989 14.1147 31.7989 14.1723C31.794 14.5767 31.7699 14.9821 31.7266 15.3886C31.1347 21.0457 27.0438 26.7227 22.0887 26.7227C17.1335 26.7227 13.0489 21.0656 12.4507 15.4085C12.4182 15.0942 12.3951 14.7894 12.3836 14.4803C12.3836 14.319 12.3752 14.1576 12.3752 13.9974C12.3752 7.92123 16.7249 2.98804 22.0907 2.98804C27.4566 2.98804 31.7989 7.91913 31.7989 13.9995Z" fill="#F29B7E"/>
<path d="M25.7752 16.1127C26.2439 16.1127 26.6238 15.6127 26.6238 14.9959C26.6238 14.3791 26.2439 13.8792 25.7752 13.8792C25.3066 13.8792 24.9266 14.3791 24.9266 14.9959C24.9266 15.6127 25.3066 16.1127 25.7752 16.1127Z" fill="#341724"/>
<path d="M26.2508 14.5526C26.2306 14.5337 26.218 14.508 26.2156 14.4804C26.2132 14.4528 26.2211 14.4253 26.2378 14.4032C26.2544 14.3811 26.2786 14.3659 26.3058 14.3606C26.333 14.3553 26.3611 14.3602 26.3849 14.3745C26.4184 14.3828 26.6793 14.4331 26.9454 14.1503C26.9658 14.1286 26.994 14.1159 27.0238 14.115C27.0536 14.1142 27.0824 14.1251 27.1041 14.1456C27.1258 14.166 27.1385 14.1942 27.1394 14.2239C27.1402 14.2537 27.1293 14.2826 27.1088 14.3043C27.0303 14.3952 26.934 14.4691 26.826 14.5215C26.7179 14.5739 26.6002 14.6037 26.4802 14.6091H26.4698C26.3924 14.6158 26.3152 14.5959 26.2508 14.5526Z" fill="#341724"/>
<path d="M25.1539 12.9594C25.1958 12.9469 26.2016 12.664 27.0658 13.8289C27.0957 13.869 27.1331 13.9029 27.1761 13.9285C27.219 13.9541 27.2666 13.971 27.316 13.9783C27.3655 13.9855 27.4159 13.983 27.4644 13.9707C27.5129 13.9585 27.5584 13.9368 27.5985 13.907C27.6386 13.8771 27.6725 13.8397 27.6981 13.7967C27.7237 13.7538 27.7406 13.7063 27.7479 13.6568C27.7551 13.6073 27.7526 13.5569 27.7403 13.5085C27.7281 13.46 27.7064 13.4144 27.6766 13.3743C27.0564 12.5362 26.3524 12.2712 25.8726 12.1926C25.5575 12.1353 25.2335 12.1492 24.9245 12.2335C24.9245 12.2335 24.474 12.355 24.5809 12.6776C24.7003 13.0391 25.1571 12.9584 25.1571 12.9584L25.1539 12.9594Z" fill="#341724"/>
<path d="M18.1402 16.1639C18.6089 16.1639 18.9888 15.6639 18.9888 15.0472C18.9888 14.4304 18.6089 13.9304 18.1402 13.9304C17.6716 13.9304 17.2917 14.4304 17.2917 15.0472C17.2917 15.6639 17.6716 16.1639 18.1402 16.1639Z" fill="#341724"/>
<path d="M17.4488 14.6596H17.4383C17.3184 14.6542 17.2009 14.6245 17.0928 14.5723C16.9848 14.52 16.8885 14.4464 16.8098 14.3558C16.7979 14.3454 16.7883 14.3327 16.7816 14.3184C16.775 14.3041 16.7714 14.2886 16.771 14.2729C16.7707 14.2571 16.7737 14.2415 16.7797 14.2269C16.7858 14.2124 16.7948 14.1993 16.8063 14.1884C16.8177 14.1776 16.8313 14.1692 16.8461 14.1639C16.861 14.1586 16.8767 14.1565 16.8925 14.1577C16.9082 14.1588 16.9235 14.1632 16.9374 14.1707C16.9513 14.1781 16.9635 14.1883 16.9732 14.2007C17.2393 14.4836 17.497 14.4333 17.5337 14.426C17.5574 14.4117 17.5856 14.4068 17.6127 14.4121C17.6399 14.4174 17.6641 14.4326 17.6808 14.4547C17.6974 14.4768 17.7053 14.5043 17.7029 14.5319C17.7005 14.5595 17.688 14.5852 17.6677 14.6041C17.6031 14.6466 17.5259 14.6662 17.4488 14.6596Z" fill="#341724"/>
<path d="M18.7625 13.0106C18.7196 12.9981 17.7149 12.7142 16.8496 13.8801C16.7893 13.9611 16.6993 14.0149 16.5994 14.0295C16.4995 14.0441 16.3978 14.0185 16.3169 13.9582C16.2359 13.8979 16.1821 13.8079 16.1675 13.708C16.1529 13.6081 16.1785 13.5065 16.2388 13.4255C16.859 12.5874 17.563 12.3224 18.0428 12.2427C18.3583 12.1861 18.6825 12.2001 18.9919 12.2836C18.9919 12.2836 19.4414 12.4051 19.3345 12.7288C19.2151 13.0903 18.7583 13.0085 18.7583 13.0085L18.7625 13.0106Z" fill="#341724"/>
<path d="M20.2553 17.154C20.2553 17.154 21.1186 14.5905 21.8037 14.6397C22.4888 14.689 24.1388 17.9397 24.1388 17.9397L20.2553 17.154Z" fill="#C47E65"/>
<path d="M31.7979 15.287C31.7925 15.6571 31.7684 16.0267 31.7256 16.3943C31.6307 17.2037 31.4571 18.002 31.207 18.7776C31.1526 18.9452 31.096 19.1118 31.0352 19.2773C30.9472 19.5204 30.8508 19.7624 30.7471 20.0002C30.6738 20.172 30.5963 20.3428 30.5146 20.5104C29.9516 21.6865 29.2145 22.7711 28.3282 23.7276C27.6134 24.5026 26.7842 25.1636 25.8695 25.6877C24.7181 26.355 23.4131 26.7117 22.0824 26.7227C21.1026 26.719 20.1331 26.5218 19.2297 26.1423C18.2364 25.7228 17.322 25.1368 16.5259 24.4096C15.6631 23.6229 14.9167 22.7174 14.3091 21.7204C13.8705 21.0073 13.4991 20.2551 13.1997 19.4732C12.8206 18.4893 12.5651 17.4622 12.4392 16.4153C12.4067 16.1324 12.3836 15.8506 12.3721 15.5688C13.0007 16.3021 14.2054 17.4346 15.9885 17.7876C17.5421 18.0956 19.9055 16.4163 22.0541 16.4425C24.1105 16.4676 25.6379 18.0443 27.5111 17.7122C29.0102 17.4461 30.2087 16.0444 31.7979 15.287Z" fill="white"/>
<g opacity="0.12">
<path opacity="0.12" d="M11.2616 47.1426H9.90708C10.1051 45.3795 10.4665 42.3435 10.61 42.3069C10.7535 42.2702 11.05 45.0788 11.2616 47.1426Z" fill="#010101"/>
</g>
<g opacity="0.12">
<path opacity="0.12" d="M37.5587 47.1428H36.2995L36.729 42.307L37.5587 47.1428Z" fill="#010101"/>
</g>
<path d="M31.7246 15.4893C26.3723 13.4224 21.8771 6.31543 21.8771 6.31543L21.854 6.35419C18.2219 12.6996 12.2317 15.9094 12.2317 15.9094C12.1926 15.7334 12.1608 15.555 12.1364 15.3741C11.6513 11.9275 13.3935 7.64694 15.6584 4.9703C18.0439 2.15223 20.5057 2.63518 24.2122 2.86356C27.9186 3.09194 31.0143 8.39703 31.6502 10.7321C32.2861 13.0673 31.7246 15.4893 31.7246 15.4893Z" fill="#362B39"/>
<g opacity="0.12">
<path opacity="0.12" d="M21.8571 6.3542C18.2251 12.6996 12.2349 15.9095 12.2349 15.9095C12.1958 15.7335 12.164 15.555 12.1395 15.3741C12.7115 14.8398 17.4373 10.3749 19.368 6.84867C20.2606 5.2165 21.1437 5.50564 21.8571 6.3542Z" fill="#010101"/>
</g>
<path d="M15.6207 20.6466C15.6888 20.7157 15.7409 20.7989 15.7732 20.8904C15.8054 20.9818 15.8172 21.0793 15.8075 21.1758C15.7979 21.2723 15.7671 21.3655 15.7173 21.4487C15.6675 21.532 15.6 21.6032 15.5196 21.6574C15.4392 21.7116 15.3478 21.7474 15.2519 21.7623C15.1561 21.7771 15.0582 21.7707 14.9651 21.7434C14.872 21.7161 14.7861 21.6686 14.7135 21.6044C14.6408 21.5401 14.5833 21.4606 14.5448 21.3716C14.5054 21.5094 14.4228 21.631 14.3091 21.7183C13.8706 21.006 13.4992 20.2544 13.1997 19.4733C13.2874 19.4238 13.3852 19.3948 13.4858 19.3886C13.5863 19.3825 13.687 19.3992 13.7801 19.4377C13.7834 19.2627 13.8561 19.0961 13.9823 18.9747C14.1084 18.8533 14.2776 18.7869 14.4526 18.7903C14.6277 18.7936 14.7942 18.8663 14.9156 18.9925C15.0371 19.1186 15.1034 19.2878 15.1001 19.4628C15.1001 19.4681 15.1001 19.4723 15.1001 19.4765C15.179 19.415 15.2709 19.3724 15.3688 19.3517C15.4667 19.331 15.568 19.3328 15.665 19.357C15.7621 19.3812 15.8524 19.4272 15.9291 19.4914C16.0058 19.5556 16.0669 19.6364 16.1077 19.7277C16.1486 19.819 16.1682 19.9184 16.165 20.0184C16.1618 20.1184 16.1359 20.2164 16.0893 20.3049C16.0427 20.3934 15.9766 20.4702 15.896 20.5294C15.8153 20.5886 15.7223 20.6287 15.6239 20.6466H15.6207Z" fill="#F26959"/>
<path d="M19.2497 25.1901C19.3127 25.2529 19.3623 25.3279 19.3956 25.4104C19.4289 25.493 19.4451 25.5815 19.4432 25.6705C19.4413 25.7594 19.4215 25.8471 19.3848 25.9282C19.3481 26.0093 19.2954 26.0822 19.2298 26.1423C18.2364 25.7228 17.322 25.1368 16.5259 24.4096C16.5527 24.3211 16.5978 24.2393 16.6583 24.1693C16.7187 24.0994 16.7931 24.0428 16.8766 24.0034C16.9602 23.9639 17.0512 23.9424 17.1436 23.9401C17.236 23.9379 17.3278 23.9551 17.4132 23.9905C17.4224 23.8198 17.4976 23.6592 17.6229 23.5428C17.7482 23.4263 17.9138 23.3631 18.0848 23.3663C18.2558 23.3696 18.4189 23.4391 18.5396 23.5602C18.6604 23.6814 18.7294 23.8447 18.7321 24.0157V24.0293C18.8112 23.9673 18.9034 23.9242 19.0017 23.9033C19.1 23.8824 19.2017 23.8841 19.2992 23.9085C19.3967 23.9329 19.4873 23.9791 19.5642 24.0439C19.6411 24.1086 19.7022 24.19 19.7428 24.2819C19.7835 24.3737 19.8026 24.4737 19.7987 24.5741C19.7949 24.6745 19.7681 24.7727 19.7206 24.8612C19.673 24.9497 19.6059 25.0262 19.5243 25.0848C19.4426 25.1435 19.3487 25.1827 19.2497 25.1995V25.1901Z" fill="#F26959"/>
<path d="M20.8902 20.1491C20.8909 20.025 20.8567 19.9033 20.7914 19.7979C20.7261 19.6924 20.6325 19.6075 20.5212 19.5528C20.4098 19.4981 20.2854 19.4759 20.162 19.4888C20.0387 19.5016 19.9214 19.5489 19.8237 19.6253V19.6116C19.821 19.4406 19.752 19.2773 19.6312 19.1562C19.5105 19.0351 19.3474 18.9655 19.1764 18.9623C19.0054 18.959 18.8398 19.0223 18.7145 19.1387C18.5892 19.2552 18.514 19.4157 18.5048 19.5865C18.4243 19.5523 18.3377 19.5349 18.2502 19.5352C18.0806 19.5347 17.9174 19.5996 17.7943 19.7163C17.6713 19.8331 17.5979 19.9927 17.5894 20.1621C17.5809 20.3315 17.638 20.4977 17.7487 20.6261C17.8595 20.7546 18.0154 20.8355 18.1842 20.852C18.1092 20.9211 18.0512 21.0066 18.0149 21.1019C17.9785 21.1972 17.9646 21.2996 17.9745 21.4011C17.9843 21.5026 18.0175 21.6004 18.0715 21.6869C18.1256 21.7735 18.1989 21.8463 18.2858 21.8997C18.3726 21.9531 18.4707 21.9856 18.5723 21.9948C18.6739 22.0039 18.7762 21.9894 18.8712 21.9523C18.9662 21.9153 19.0513 21.8567 19.1199 21.7812C19.1885 21.7057 19.2386 21.6153 19.2664 21.5172C19.3042 21.607 19.3614 21.6874 19.4339 21.7524C19.5065 21.8175 19.5925 21.8657 19.6859 21.8936C19.7792 21.9215 19.8776 21.9284 19.9739 21.9137C20.0703 21.8991 20.1622 21.8633 20.243 21.8089C20.3239 21.7545 20.3917 21.6829 20.4416 21.5992C20.4915 21.5155 20.5222 21.4218 20.5316 21.3248C20.541 21.2278 20.5288 21.13 20.4959 21.0382C20.463 20.9465 20.4102 20.8633 20.3412 20.7944C20.4939 20.7683 20.6326 20.6894 20.7329 20.5714C20.8333 20.4534 20.8889 20.3039 20.8902 20.1491Z" fill="#F26959"/>
<path d="M25.8391 18.3723C25.8394 18.2484 25.8049 18.127 25.7396 18.0218C25.6742 17.9166 25.5806 17.8318 25.4695 17.7772C25.3583 17.7226 25.234 17.7004 25.1108 17.713C24.9876 17.7256 24.8704 17.7725 24.7726 17.8485C24.7726 17.8485 24.7726 17.8401 24.7726 17.8359C24.776 17.6608 24.7096 17.4917 24.5882 17.3655C24.4668 17.2394 24.3002 17.1667 24.1252 17.1633C23.9502 17.16 23.781 17.2263 23.6548 17.3477C23.5287 17.4692 23.456 17.6357 23.4527 17.8107C23.3725 17.7765 23.2863 17.759 23.1991 17.7594C23.0294 17.7587 22.866 17.8234 22.7427 17.94C22.6194 18.0567 22.5459 18.2163 22.5372 18.3858C22.5286 18.5553 22.5856 18.7216 22.6964 18.8502C22.8071 18.9788 22.9632 19.0597 23.1321 19.0762C23.057 19.1453 22.9989 19.2309 22.9624 19.3262C22.9259 19.4216 22.9121 19.5241 22.9219 19.6257C22.9318 19.7273 22.965 19.8252 23.0191 19.9117C23.0732 19.9983 23.1466 20.0711 23.2336 20.1245C23.3206 20.1779 23.4188 20.2104 23.5205 20.2194C23.6221 20.2285 23.7245 20.2138 23.8195 20.1766C23.9146 20.1393 23.9997 20.0806 24.0682 20.0049C24.1367 19.9292 24.1867 19.8387 24.2143 19.7404C24.252 19.8302 24.3092 19.9105 24.3817 19.9755C24.4541 20.0406 24.5401 20.0888 24.6334 20.1167C24.7266 20.1446 24.825 20.1515 24.9212 20.137C25.0175 20.1224 25.1094 20.0867 25.1903 20.0325C25.2711 19.9782 25.339 19.9068 25.389 19.8232C25.439 19.7396 25.4698 19.646 25.4794 19.5491C25.4889 19.4522 25.4769 19.3544 25.4442 19.2627C25.4115 19.171 25.3589 19.0876 25.2901 19.0186C25.4431 18.9927 25.582 18.9137 25.6824 18.7955C25.7828 18.6772 25.8383 18.5274 25.8391 18.3723Z" fill="#F26959"/>
<path d="M30.7126 19.4125C30.7133 19.2885 30.6791 19.1668 30.6138 19.0613C30.5485 18.9559 30.4549 18.8709 30.3436 18.8163C30.2322 18.7616 30.1078 18.7394 29.9844 18.7522C29.8611 18.765 29.7438 18.8123 29.6461 18.8887C29.6461 18.8887 29.6461 18.8793 29.6461 18.8751C29.6495 18.7 29.5831 18.5308 29.4617 18.4047C29.3403 18.2786 29.1737 18.2058 28.9987 18.2025C28.8237 18.1992 28.6545 18.2655 28.5283 18.3869C28.4022 18.5083 28.3295 18.6749 28.3261 18.8499C28.2386 18.8133 28.1441 18.7959 28.0493 18.7991C27.9544 18.8023 27.8613 18.8259 27.7764 18.8683C27.6915 18.9107 27.6167 18.9709 27.5572 19.0448C27.4977 19.1188 27.4548 19.2047 27.4315 19.2967C27.4082 19.3887 27.405 19.4846 27.4221 19.578C27.4393 19.6714 27.4764 19.7599 27.5309 19.8376C27.5854 19.9154 27.656 19.9804 27.7379 20.0283C27.8198 20.0763 27.9111 20.106 28.0056 20.1155C27.9305 20.1845 27.8726 20.2701 27.8362 20.3654C27.7998 20.4606 27.786 20.563 27.7958 20.6645C27.8056 20.7661 27.8389 20.8639 27.8929 20.9504C27.9469 21.0369 28.0202 21.1097 28.1071 21.1631C28.194 21.2166 28.292 21.2491 28.3936 21.2582C28.4952 21.2674 28.5975 21.2528 28.6925 21.2158C28.7875 21.1787 28.8727 21.1201 28.9412 21.0447C29.0098 20.9692 29.06 20.8788 29.0877 20.7807C29.1255 20.8704 29.1827 20.9507 29.2551 21.0158C29.3276 21.0808 29.4136 21.129 29.5069 21.157C29.6001 21.1849 29.6985 21.1918 29.7947 21.1773C29.891 21.1627 29.9829 21.127 30.0638 21.0728C30.1446 21.0185 30.2125 20.947 30.2625 20.8635C30.3125 20.7799 30.3433 20.6863 30.3529 20.5894C30.3624 20.4925 30.3504 20.3946 30.3177 20.3029C30.285 20.2112 30.2324 20.1279 30.1636 20.0589C30.3165 20.0328 30.4553 19.9537 30.5557 19.8355C30.656 19.7173 30.7116 19.5676 30.7126 19.4125Z" fill="#F26959"/>
<path d="M25.8653 23.448C25.866 23.324 25.8318 23.2023 25.7665 23.0968C25.7012 22.9914 25.6076 22.9065 25.4963 22.8518C25.3849 22.7971 25.2605 22.7749 25.1371 22.7877C25.0138 22.8005 24.8965 22.8478 24.7988 22.9242V22.9116C24.7963 22.7406 24.7275 22.5772 24.6068 22.4559C24.4861 22.3346 24.3231 22.2649 24.152 22.2615C23.9809 22.2581 23.8152 22.3212 23.6898 22.4377C23.5645 22.5541 23.4892 22.7146 23.4799 22.8855C23.3924 22.8494 23.2982 22.8326 23.2036 22.8361C23.1091 22.8397 23.0164 22.8635 22.9318 22.906C22.8473 22.9485 22.7729 23.0087 22.7137 23.0825C22.6544 23.1563 22.6117 23.242 22.5885 23.3337C22.5653 23.4254 22.5621 23.5211 22.5791 23.6142C22.5961 23.7073 22.6329 23.7956 22.687 23.8732C22.7412 23.9508 22.8113 24.0159 22.8928 24.064C22.9743 24.1121 23.0652 24.1421 23.1593 24.152C23.0839 24.221 23.0255 24.3065 22.9888 24.4019C22.952 24.4973 22.9379 24.5999 22.9476 24.7016C22.9573 24.8034 22.9905 24.9015 23.0445 24.9882C23.0986 25.0749 23.1721 25.1479 23.2592 25.2014C23.3463 25.2549 23.4446 25.2875 23.5464 25.2965C23.6482 25.3055 23.7507 25.2908 23.8458 25.2534C23.941 25.2161 24.0261 25.1571 24.0946 25.0813C24.1631 25.0054 24.213 24.9146 24.2404 24.8162C24.278 24.9062 24.335 24.9867 24.4074 25.052C24.4798 25.1173 24.5658 25.1658 24.6592 25.1939C24.7525 25.222 24.851 25.2291 24.9474 25.2147C25.0438 25.2002 25.1358 25.1646 25.2168 25.1103C25.2979 25.056 25.3658 24.9845 25.4159 24.9008C25.466 24.8171 25.4969 24.7234 25.5064 24.6264C25.5159 24.5293 25.5038 24.4314 25.4709 24.3396C25.4381 24.2478 25.3853 24.1644 25.3163 24.0954C25.4694 24.0693 25.6083 23.9901 25.7087 23.8717C25.8091 23.7533 25.8645 23.6033 25.8653 23.448Z" fill="#F26959"/>
<g opacity="0.12">
<path opacity="0.12" d="M26.9559 19.6954C26.9559 19.6954 21.8289 20.8876 17.5138 20.279C17.5138 20.2758 21.0935 22.5345 26.9559 19.6954Z" fill="#010101"/>
</g>
</svg>
