<svg width="29" height="26" viewBox="0 0 29 26" fill="none" xmlns="http://www.w3.org/2000/svg">
<path d="M11.375 10.75C11.9495 10.75 12.5184 10.6368 13.0492 10.417C13.58 10.1971 14.0623 9.87484 14.4686 9.46859C14.8748 9.06233 15.1971 8.58003 15.417 8.04924C15.6368 7.51844 15.75 6.94953 15.75 6.375C15.75 5.80046 15.6368 5.23156 15.417 4.70076C15.1971 4.16996 14.8748 3.68766 14.4686 3.28141C14.0623 2.87515 13.58 2.55289 13.0492 2.33303C12.5184 2.11316 11.9495 2 11.375 2C10.2147 2 9.10188 2.46094 8.28141 3.28141C7.46094 4.10188 7 5.21468 7 6.375C7 7.53532 7.46094 8.64812 8.28141 9.46859C9.10188 10.2891 10.2147 10.75 11.375 10.75V10.75Z" stroke="#A2A2A2" stroke-width="3" stroke-linecap="round" stroke-linejoin="round"/>
<path d="M19.88 2.62463C20.527 3.01352 21.0623 3.56329 21.4338 4.22044C21.8054 4.87759 22.0004 5.61974 22 6.37463C22.0004 7.12953 21.8054 7.87167 21.4338 8.52882C21.0623 9.18597 20.527 9.73574 19.88 10.1246" stroke="#A2A2A2" stroke-width="3" stroke-linecap="round" stroke-linejoin="round"/>
<path d="M2 23.75V24.5H20.75V23.75C20.75 20.95 20.75 19.55 20.205 18.48C19.7256 17.5392 18.9608 16.7744 18.02 16.295C16.95 15.75 15.55 15.75 12.75 15.75H10C7.2 15.75 5.8 15.75 4.73 16.295C3.78923 16.7744 3.02436 17.5392 2.545 18.48C2 19.55 2 20.95 2 23.75Z" stroke="#A2A2A2" stroke-width="3" stroke-linecap="round" stroke-linejoin="round"/>
<path d="M27 24.5V23.75C27 20.95 27 19.55 26.455 18.48C25.9756 17.5393 25.2108 16.7744 24.27 16.295" stroke="#A2A2A2" stroke-width="3" stroke-linecap="round" stroke-linejoin="round"/>
</svg>
