<svg width="45" height="49" viewBox="0 0 45 49" fill="none" xmlns="http://www.w3.org/2000/svg">
<path d="M44.9907 48.331H0.00929159C-0.262372 38.5796 5.47521 35.1501 10.3757 33.3958C10.6853 33.2853 10.9927 33.18 11.2949 33.08C11.4423 33.0315 11.5887 32.9852 11.734 32.9389C13.0407 32.5272 14.2316 32.2102 15.1614 31.8859C15.3769 31.8108 15.5777 31.7357 15.7637 31.6606C15.869 31.6174 15.9669 31.5742 16.0606 31.53L16.0859 31.5184L16.2291 31.4468C16.4608 31.3276 16.6796 31.1847 16.8819 31.0204C17.1989 30.7627 17.4692 30.4524 17.6811 30.1032C18.0574 29.4542 18.2823 28.7286 18.3392 27.9805C18.4065 27.1825 18.3711 26.3792 18.2339 25.5903C18.1434 25.019 18.0082 24.4557 17.8296 23.9055H27.1746C27.1746 23.9055 26.2859 26.4558 26.7755 28.6975C26.8699 29.1662 27.0372 29.6171 27.2715 30.0337C27.4237 30.2972 27.6084 30.5406 27.8211 30.7582C27.9367 30.8757 28.0602 30.9851 28.1907 31.0857C28.3718 31.2244 28.5649 31.3467 28.7677 31.451L28.8046 31.47L28.8604 31.4984L28.8762 31.5058C29.1955 31.6559 29.5236 31.7867 29.8586 31.8975C31.0927 32.3187 32.7837 32.7399 34.5906 33.3853C34.7275 33.4338 34.8654 33.4843 35.0034 33.5359C35.3361 33.6601 35.6713 33.7928 36.0089 33.9339C40.5462 35.845 45.2371 39.4862 44.9907 48.331Z" fill="#F49B80"/>
<path d="M44.9907 48.3311H0.00929159C-0.262372 38.5796 5.47521 35.1501 10.3757 33.3959C10.6853 33.2853 10.9927 33.18 11.2949 33.08C11.4423 33.0315 11.5887 32.9852 11.734 32.9389C13.0407 32.5272 14.2316 32.2102 15.1614 31.8859C15.3769 31.8108 15.5777 31.7357 15.7637 31.6606C15.869 31.6174 15.9669 31.5742 16.0606 31.53L16.0859 31.5184L16.2291 31.4468C16.4608 31.3276 16.6796 31.1847 16.8819 31.0204L18.9752 33.1368C18.9752 33.1368 25.5625 35.3481 27.5568 31.4279C27.5568 31.4279 27.7853 31.291 28.1949 31.0815C28.376 31.2202 28.5691 31.3425 28.772 31.4468L28.8088 31.4658L28.8646 31.4942L28.8804 31.5016C29.1998 31.6517 29.5278 31.7825 29.8628 31.8933C31.0969 32.3145 32.7879 32.7357 34.5948 33.3811C34.7317 33.4296 34.8696 33.4801 35.0076 33.5317C35.3403 33.6559 35.6755 33.7886 36.0132 33.9297C40.5462 35.8451 45.2371 39.4862 44.9907 48.3311Z" fill="#7096BD"/>
<path d="M31.8287 19.9664L13.0997 20.8214C13.0997 20.8214 11.2128 18.4712 9.53963 13.5928C7.86648 8.71445 10.3588 6.93495 12.3194 7.39719C12.3194 7.39719 12.4616 1.11629 19.3743 0.169676C24.0199 -0.468418 28.3034 0.696156 30.9474 3.61391C30.9621 3.6297 30.9769 3.6455 30.9926 3.66445C31.1955 3.89119 31.3882 4.1281 31.5707 4.3752C31.8798 4.79597 32.1554 5.24027 32.3952 5.70403C32.9016 6.69641 33.2566 7.75906 33.4482 8.8566C33.9852 11.8323 33.5661 15.5397 31.8287 19.9664Z" fill="#965551"/>
<path d="M32.2309 17.9774C32.2309 17.9774 33.5735 12.9874 31.1169 10.6372C28.6603 8.28699 29.2658 19.5042 29.2658 19.5042L32.2309 17.9774Z" fill="#764240"/>
<path d="M26.7734 28.7048C26.2079 29.3153 25.4631 29.7305 24.6465 29.8905C21.8224 30.4801 19.6007 29.0944 18.3392 27.9846C18.4059 27.1866 18.3705 26.3834 18.2339 25.5944C19.031 24.9152 20.0513 24.3614 21.1338 23.9097H27.1736C27.1736 23.9097 26.2838 26.4641 26.7734 28.7048Z" fill="#D88471"/>
<path d="M12.4816 19.3452L12.1383 19.0967C11.8393 18.1806 10.999 13.5571 12.8322 11.9029C14.8213 10.1086 12.4816 19.3452 12.4816 19.3452Z" fill="#764240"/>
<path d="M14.9035 20.7559C15.8797 19.7797 15.8797 18.1969 14.9035 17.2207C13.9273 16.2445 12.3446 16.2445 11.3684 17.2207C10.3922 18.1969 10.3922 19.7797 11.3684 20.7559C12.3446 21.7321 13.9273 21.7321 14.9035 20.7559Z" fill="#F49B80"/>
<path d="M14.2401 20.0925C14.8499 19.4826 14.8499 18.4939 14.2401 17.8841C13.6303 17.2743 12.6416 17.2743 12.0318 17.8841C11.4219 18.4939 11.4219 19.4826 12.0318 20.0925C12.6416 20.7023 13.6303 20.7023 14.2401 20.0925Z" fill="#D88471"/>
<path d="M33.5173 19.5843C33.8313 18.2399 32.9961 16.8955 31.6518 16.5814C30.3074 16.2674 28.963 17.1026 28.6489 18.4469C28.3348 19.7913 29.17 21.1357 30.5144 21.4498C31.8587 21.7639 33.2032 20.9287 33.5173 19.5843Z" fill="#F49B80"/>
<path d="M31.0811 20.575C31.9435 20.575 32.6426 19.8759 32.6426 19.0134C32.6426 18.151 31.9435 17.4519 31.0811 17.4519C30.2187 17.4519 29.5196 18.151 29.5196 19.0134C29.5196 19.8759 30.2187 20.575 31.0811 20.575Z" fill="#D88471"/>
<path d="M31.7992 15.187C31.7992 15.2449 31.7992 15.3028 31.7992 15.3607C31.7939 15.764 31.7697 16.1705 31.7266 16.5759C31.1358 22.2366 27.044 27.9099 22.0846 27.9099C17.1252 27.9099 13.0439 22.2513 12.4437 16.598C12.4111 16.2884 12.3879 15.9788 12.3763 15.6693C12.3763 15.5082 12.3679 15.347 12.3679 15.187C12.3679 9.10615 16.7177 4.17725 22.0846 4.17725C27.4515 4.17725 31.7992 9.10615 31.7992 15.187Z" fill="#F49B80"/>
<path d="M25.054 14.392C25.0866 14.3615 25.8626 13.6676 27.1546 14.3351C27.244 14.3778 27.3465 14.3841 27.4404 14.3525C27.5342 14.3209 27.6122 14.2541 27.6576 14.1661C27.703 14.0781 27.7124 13.9758 27.6838 13.881C27.6552 13.7862 27.5907 13.7062 27.5042 13.6581C26.5807 13.1811 25.831 13.2474 25.3646 13.3864C25.0562 13.4737 24.771 13.6283 24.5296 13.8392C24.5296 13.8392 24.1789 14.1456 24.4169 14.3899C24.6823 14.6626 25.0571 14.3899 25.0571 14.3899L25.054 14.392Z" fill="#341724"/>
<path d="M18.7488 14.4457C18.7109 14.4236 17.8012 13.9193 16.6871 14.849C16.6491 14.8835 16.6045 14.91 16.556 14.9268C16.5074 14.9437 16.456 14.9505 16.4048 14.947C16.3536 14.9434 16.3036 14.9296 16.2578 14.9063C16.2121 14.8829 16.1715 14.8506 16.1386 14.8112C16.1057 14.7718 16.081 14.7261 16.0662 14.677C16.0513 14.6278 16.0465 14.5762 16.0521 14.5251C16.0577 14.4741 16.0736 14.4247 16.0987 14.3799C16.1239 14.3352 16.1579 14.296 16.1986 14.2646C16.9956 13.5981 17.7411 13.4991 18.2276 13.5328C18.5475 13.5506 18.8593 13.6394 19.1405 13.7929C19.1405 13.7929 19.5501 14.0151 19.3711 14.3046C19.1711 14.629 18.7457 14.4436 18.7457 14.4436L18.7488 14.4457Z" fill="#341724"/>
<path d="M20.2556 18.3406C20.2556 18.3406 21.119 15.7777 21.8045 15.8283C22.49 15.8788 24.1389 19.1282 24.1389 19.1282L20.2556 18.3406Z" fill="#D88471"/>
<path d="M31.7992 16.4738C31.7992 16.5517 31.7992 16.6275 31.7939 16.7044C31.7834 16.9971 31.761 17.2898 31.7266 17.5825C31.7266 17.612 31.7202 17.6415 31.716 17.671C31.6194 18.45 31.4495 19.2182 31.2085 19.9654C31.1552 20.1324 31.0979 20.2988 31.0369 20.4645L30.98 20.6193C30.9579 20.6782 30.9347 20.7382 30.9116 20.7962C30.8589 20.9278 30.8063 21.0583 30.7494 21.1879C30.6926 21.3174 30.6346 21.449 30.5736 21.5775C30.5546 21.6185 30.5357 21.6585 30.5157 21.6985C30.4956 21.7386 30.4672 21.8038 30.4419 21.8491C29.8881 22.9682 29.1748 24.001 28.3244 24.9153C27.6099 25.6904 26.7807 26.3513 25.8658 26.8749C25.5114 27.0766 25.143 27.2526 24.7633 27.4014C24.439 27.5295 24.1061 27.635 23.7672 27.7173C23.2155 27.8503 22.65 27.9178 22.0825 27.9184C21.2092 27.9163 20.3432 27.7591 19.5249 27.454C19.4248 27.4172 19.3269 27.3793 19.229 27.3382C19.1019 27.2856 18.9756 27.2297 18.8499 27.1708C18.0044 26.7602 17.2233 26.2285 16.5313 25.5924C16.446 25.5155 16.3618 25.4366 16.2786 25.3565C16.0838 25.1702 15.8942 24.9743 15.711 24.7721C15.1905 24.1952 14.7245 23.5713 14.319 22.9084V22.9021L14.2148 22.7441C14.061 22.4851 13.9157 22.2177 13.7789 21.9523L13.7252 21.847L13.6778 21.7522C13.5356 21.4606 13.404 21.1626 13.284 20.8614C13.2587 20.7983 13.2334 20.734 13.2092 20.6709C13.1702 20.5708 13.1344 20.4718 13.0986 20.3708C12.7788 19.4785 12.5605 18.5531 12.4479 17.612C12.4153 17.3298 12.3921 17.0476 12.3816 16.7696C13.1097 17.6477 14.0498 18.3254 15.113 18.7387C15.4003 18.8456 15.6957 18.9294 15.9964 18.9893L16.0596 19.0009C16.982 19.1504 18.1771 18.6355 19.4396 18.1975C19.9669 17.9998 20.5082 17.8418 21.059 17.7247C21.3865 17.6612 21.7194 17.6294 22.053 17.6299C22.3772 17.6356 22.6998 17.6758 23.0154 17.7499C23.1018 17.77 23.1881 17.7921 23.2723 17.8152C23.3924 17.8489 23.5103 17.8847 23.6261 17.9205C23.7072 17.9479 23.7883 17.9763 23.8683 18.0058L24.0452 18.0721C24.3137 18.1774 24.578 18.2827 24.8402 18.388C25.6057 18.7039 26.3533 18.9787 27.1567 18.9335C27.2746 18.9264 27.392 18.9127 27.5084 18.8924C27.6875 18.8602 27.8637 18.813 28.0349 18.7513L28.1497 18.7081C28.403 18.6065 28.6477 18.4847 28.8815 18.3438C29.8207 17.8005 30.7189 16.9887 31.7992 16.4738Z" fill="#F6D8BE"/>
<g opacity="0.12">
<path opacity="0.12" d="M11.2665 48.331H9.90712C10.1051 46.5684 10.4662 43.5316 10.6105 43.4958C10.7548 43.46 11.0496 46.2672 11.2665 48.331Z" fill="#010101"/>
</g>
<g opacity="0.12">
<path opacity="0.12" d="M37.5589 48.331H36.3006L36.7292 43.4958L37.5589 48.331Z" fill="#010101"/>
</g>
<path d="M25.2393 6.94971V6.95813C25.2387 6.9568 25.2384 6.95537 25.2384 6.95392C25.2384 6.95247 25.2387 6.95104 25.2393 6.94971V6.94971Z" fill="#63291D"/>
<path d="M18.8941 16.4737C18.7777 16.2385 18.5975 16.0406 18.3741 15.9027C18.1507 15.7647 17.8931 15.6923 17.6306 15.6935C16.704 15.6935 16.2617 16.717 15.5352 16.717C15.5352 16.717 15.5836 17.0581 16.5092 16.5706C17.4347 16.0831 17.7243 15.7946 18.8941 16.4737Z" fill="#341724"/>
<path d="M24.9318 16.2242C25.0484 15.9891 25.2287 15.7914 25.452 15.6537C25.6754 15.5159 25.9329 15.4436 26.1954 15.445C27.1209 15.445 27.5642 16.4674 28.2907 16.4674C28.2907 16.4674 28.2423 16.8085 27.3168 16.3221C26.3912 15.8356 26.1016 15.5418 24.9318 16.2242Z" fill="#341724"/>
<path d="M33.446 8.86079C32.4552 9.47151 31.0516 10.1012 30.4756 10.1391C29.4079 10.2107 23.7462 4.15722 23.7462 4.15722C23.7462 4.15722 28.0191 5.43867 30.6188 3.80132C30.7315 3.72972 30.8389 3.66759 30.9347 3.61389C30.9495 3.62969 30.9642 3.64548 30.98 3.66443C31.1116 3.81501 31.3149 4.06561 31.5581 4.37518C31.8671 4.79596 32.1428 5.24026 32.3826 5.70402C32.893 6.69712 33.2515 7.76124 33.446 8.86079Z" fill="#764240"/>
<path d="M35.8879 5.61659C35.8805 5.65344 35.8721 5.6924 35.8636 5.73452C32.6637 20.7255 15.2014 9.1777 15.2014 9.1777C15.1961 9.41988 15.1867 9.65574 15.1751 9.88529C14.8708 15.8987 12.4595 17.6161 12.4595 17.6161C9.75339 3.33798 21.5034 2.41243 26.5955 4.65523C31.6876 6.89804 34.001 2.73779 34.001 2.73779C34.8918 6.79695 31.3686 8.36376 31.3686 8.36376C34.8918 7.86044 35.8879 5.61659 35.8879 5.61659Z" fill="#965551"/>
<path d="M15.2014 9.17773C15.1961 9.41992 15.1867 9.65578 15.1751 9.88532C15.1502 9.64941 15.1591 9.41115 15.2014 9.17773V9.17773Z" fill="#E5C3AA"/>
<path d="M35.8636 5.73462C32.6637 20.7256 15.2014 9.1778 15.2014 9.1778C15.2014 9.1778 22.1088 12.382 28.4824 11.389C34.6569 10.4245 35.5899 7.01397 35.8636 5.73462Z" fill="#764240"/>
<path d="M28.8646 31.4984C28.511 32.0006 28.1101 32.4678 27.6674 32.8935C26.1996 34.2982 24.4359 35.0342 22.5532 35.0342C22.4479 35.0342 22.3426 35.0342 22.2373 35.0268C20.2867 34.9522 18.4379 34.137 17.0672 32.7472C16.6956 32.3754 16.3586 31.9704 16.0606 31.5373L16.0859 31.5257L16.2291 31.4541C16.8286 31.15 17.3315 30.6847 17.6811 30.1106C17.9494 30.539 18.2675 30.9341 18.6288 31.2878C19.6135 32.2743 20.9368 32.8492 22.3299 32.8956C23.7356 32.9557 25.0171 32.4523 26.1406 31.3983C26.5709 30.9904 26.9506 30.5323 27.2715 30.0337C27.6217 30.6417 28.1417 31.1343 28.7677 31.451L28.8046 31.4699L28.8646 31.4984Z" fill="#89B8E0"/>
<g opacity="0.55">
<path opacity="0.55" d="M28.0391 18.7586L19.5259 27.4455C19.4259 27.4087 19.328 27.3708 19.23 27.3297C19.103 27.2771 18.9766 27.2213 18.851 27.1623L24.0568 18.726L16.2733 25.3596C16.0785 25.1732 15.889 24.9774 15.7058 24.7752L20.0376 18.3522L14.2148 22.7378C14.061 22.4787 13.9157 22.2113 13.7789 21.9459L13.7252 21.8406L15.3636 19.164L13.2787 20.8487C13.2534 20.7856 13.2282 20.7213 13.2039 20.6582C13.165 20.5581 13.1292 20.4591 13.0934 20.3581L15.1077 18.7218C15.395 18.8287 15.6904 18.9125 15.9911 18.9724L16.0543 18.9839L14.0705 22.2176L19.4343 18.1826C19.9637 17.9898 20.5068 17.8367 21.059 17.7246L16.4597 24.5394L24.0473 18.0752C24.3158 18.1805 24.5801 18.2858 24.8423 18.3911L19.9987 26.242L27.1588 18.9366C27.2767 18.9295 27.3941 18.9158 27.5105 18.8955C27.6902 18.8648 27.8671 18.819 28.0391 18.7586V18.7586Z" fill="#7096BD"/>
<path opacity="0.55" d="M31.7929 16.7043C31.7824 16.9971 31.7599 17.2898 31.7255 17.5825C31.7255 17.612 31.7192 17.6415 31.715 17.671L24.7654 27.3972C24.4411 27.5252 24.1082 27.6308 23.7693 27.713L28.1518 18.7197C28.4051 18.6181 28.6498 18.4962 28.8836 18.3554L25.1656 25.9767L31.7929 16.7043Z" fill="#7096BD"/>
</g>
<g opacity="0.12">
<path opacity="0.12" d="M27.143 20.3749C27.143 20.3749 21.8235 22.5503 17.6295 20.8835C17.6295 20.8835 20.8021 26.0703 27.143 20.3749Z" fill="#010101"/>
</g>
</svg>
