<svg width="29" height="29" viewBox="0 0 29 29" fill="none" xmlns="http://www.w3.org/2000/svg">
<path d="M13.8611 11.7222C14.4995 11.7222 15.1316 11.5965 15.7214 11.3522C16.3112 11.1079 16.847 10.7498 17.2984 10.2984C17.7498 9.84704 18.1079 9.31115 18.3522 8.72137C18.5965 8.1316 18.7222 7.49948 18.7222 6.86111C18.7222 6.22274 18.5965 5.59062 18.3522 5.00084C18.1079 4.41107 17.7498 3.87518 17.2984 3.42379C16.847 2.97239 16.3112 2.61432 15.7214 2.37003C15.1316 2.12574 14.4995 2 13.8611 2C12.5719 2 11.3354 2.51215 10.4238 3.42379C9.51215 4.33542 9 5.57186 9 6.86111C9 8.15035 9.51215 9.3868 10.4238 10.2984C11.3354 11.2101 12.5719 11.7222 13.8611 11.7222V11.7222Z" stroke="#A1A1A1" stroke-width="3" stroke-linecap="round" stroke-linejoin="round"/>
<path d="M2 26.1667V27H27V26.1667C27 23.0556 27 21.5001 26.3944 20.3112C25.8618 19.2659 25.012 18.416 23.9667 17.8834C22.7778 17.2778 21.2222 17.2778 18.1111 17.2778H10.8889C7.77778 17.2778 6.22222 17.2778 5.03333 17.8834C3.98803 18.416 3.13818 19.2659 2.60556 20.3112C2 21.5001 2 23.0556 2 26.1667Z" stroke="#A1A1A1" stroke-width="3" stroke-linecap="round" stroke-linejoin="round"/>
</svg>
