<svg width="28" height="28" viewBox="0 0 28 28" fill="none" xmlns="http://www.w3.org/2000/svg">
<rect width="28" height="28" fill="#E5E5E5"/>
<path d="M19.8333 6.99996V4.66663H7V6.99996H11.0833C12.6023 6.99996 13.8845 7.97763 14.3675 9.33329H7V11.6666H14.3675C14.128 12.3471 13.6837 12.9367 13.0957 13.3545C12.5077 13.7723 11.8047 13.9977 11.0833 14H7V16.8163L13.517 23.3333H16.8163L9.81633 16.3333H11.0833C12.4273 16.3315 13.7295 15.8663 14.7705 15.0162C15.8114 14.1661 16.5274 12.9831 16.7977 11.6666H19.8333V9.33329H16.7977C16.6188 8.48419 16.2503 7.68652 15.7197 6.99996H19.8333Z" fill="black"/>
</svg>
